<?xml version="1.0" encoding="UTF-8"?>
<svg id="Capa_2" data-name="Capa 2" xmlns="http://www.w3.org/2000/svg" xmlns:xlink="http://www.w3.org/1999/xlink" viewBox="0 0 1024 1025.78">
  <defs>
    <style>
      .cls-1 {
        fill: #9ca1a9;
      }

      .cls-2 {
        fill: #25272c;
      }

      .cls-3 {
        fill: url(#Degradado_sin_nombre_32-6);
      }

      .cls-4 {
        fill: url(#Degradado_sin_nombre_32-5);
      }

      .cls-5 {
        fill: url(#Degradado_sin_nombre_32-3);
      }

      .cls-6 {
        fill: url(#Degradado_sin_nombre_32-2);
      }

      .cls-7 {
        fill: url(#Degradado_sin_nombre_32-4);
      }

      .cls-8 {
        fill: url(#Degradado_sin_nombre_22-4);
      }

      .cls-9 {
        fill: url(#Degradado_sin_nombre_22-2);
      }

      .cls-10 {
        fill: url(#Degradado_sin_nombre_22-3);
      }

      .cls-11 {
        fill: #edf0f1;
      }

      .cls-12 {
        fill: #fff;
      }

      .cls-13 {
        fill: #f7fbfc;
      }

      .cls-14 {
        fill: #fcfcfa;
      }

      .cls-15 {
        fill: url(#Degradado_sin_nombre_32);
      }

      .cls-16 {
        fill: url(#Degradado_sin_nombre_22);
      }

      .cls-17 {
        fill: #fafeff;
      }
    </style>
    <linearGradient id="Degradado_sin_nombre_22" data-name="Degradado sin nombre 22" x1="716.55" y1="369.69" x2="716.55" y2="432.17" gradientUnits="userSpaceOnUse">
      <stop offset="0" stop-color="#c8ced9"/>
      <stop offset="1" stop-color="#404040"/>
    </linearGradient>
    <linearGradient id="Degradado_sin_nombre_32" data-name="Degradado sin nombre 32" x1="730.02" y1="466.42" x2="730.02" y2="498.11" gradientTransform="translate(34.04 -47.94) rotate(3.85)" gradientUnits="userSpaceOnUse">
      <stop offset="0" stop-color="#404040"/>
      <stop offset="1" stop-color="#c8ced9"/>
    </linearGradient>
    <linearGradient id="Degradado_sin_nombre_32-2" data-name="Degradado sin nombre 32" x1="607.44" y1="469.53" x2="775.79" y2="469.53" gradientTransform="matrix(1,0,0,1,0,0)" xlink:href="#Degradado_sin_nombre_32"/>
    <linearGradient id="Degradado_sin_nombre_32-3" data-name="Degradado sin nombre 32" x1="571.84" y1="548.01" x2="688.59" y2="480.6" gradientTransform="matrix(1,0,0,1,0,0)" xlink:href="#Degradado_sin_nombre_32"/>
    <linearGradient id="Degradado_sin_nombre_22-2" data-name="Degradado sin nombre 22" x1="604.07" y1="236.21" x2="635.5" y2="290.65" xlink:href="#Degradado_sin_nombre_22"/>
    <linearGradient id="Degradado_sin_nombre_22-3" data-name="Degradado sin nombre 22" x1="4578.84" y1="369.69" x2="4578.84" y2="432.17" gradientTransform="translate(4886.29) rotate(-180) scale(1 -1)" xlink:href="#Degradado_sin_nombre_22"/>
    <linearGradient id="Degradado_sin_nombre_32-4" data-name="Degradado sin nombre 32" x1="4592.31" y1="466.42" x2="4592.31" y2="498.11" gradientTransform="translate(1083.58 5031.82) rotate(-93.85) scale(1 -1)" xlink:href="#Degradado_sin_nombre_32"/>
    <linearGradient id="Degradado_sin_nombre_32-5" data-name="Degradado sin nombre 32" x1="4469.73" y1="469.53" x2="4638.08" y2="469.53" gradientTransform="translate(4886.29) rotate(-180) scale(1 -1)" xlink:href="#Degradado_sin_nombre_32"/>
    <linearGradient id="Degradado_sin_nombre_32-6" data-name="Degradado sin nombre 32" x1="4434.13" y1="548.01" x2="4550.88" y2="480.6" gradientTransform="translate(4886.29) rotate(-180) scale(1 -1)" xlink:href="#Degradado_sin_nombre_32"/>
    <linearGradient id="Degradado_sin_nombre_22-4" data-name="Degradado sin nombre 22" x1="4466.37" y1="236.21" x2="4497.79" y2="290.65" gradientTransform="translate(4886.29) rotate(-180) scale(1 -1)" xlink:href="#Degradado_sin_nombre_22"/>
  </defs>
  <g id="Capa_1-2" data-name="Capa 1">
    <rect class="cls-2" x="0" y="0" width="1024" height="1025.78" rx="512" ry="512"/>
    <g>
      <path class="cls-14" d="M543.18,863.9h-13v-231.8c0-46.99,38.23-85.22,85.22-85.22h158.91v13h-158.91c-39.82,0-72.22,32.4-72.22,72.22v231.8Z"/>
      <path class="cls-16" d="M704.77,432.17h-51.31v-13h51.31c6.62,0,12.84-2.58,17.52-7.26,4.9-4.9,7.6-11.42,7.6-18.36,0-13.16,10.71-23.87,23.87-23.87h25.89v13h-25.89c-5.99,0-10.87,4.88-10.87,10.87,0,10.41-4.05,20.19-11.41,27.55-7.13,7.13-16.62,11.06-26.71,11.06Z"/>
      <rect class="cls-15" x="723.52" y="466.82" width="13" height="30.88" transform="translate(-30.74 50.12) rotate(-3.85)"/>
      <rect class="cls-6" x="607.44" y="463.03" width="168.35" height="13"/>
      <path class="cls-5" d="M558.23,524.44l-4.66-12.14c25.96-9.97,88.77-8.26,149.51-6.61l-.35,13c-56.7-1.54-120.95-3.29-144.5,5.75Z"/>
      <path class="cls-14" d="M518.5,894.12h-13v-278.59c0-36.21,14.85-71.49,40.75-96.8l231.82-226.59,9.09,9.3-231.82,226.59c-23.41,22.88-36.83,54.77-36.83,87.5v278.59Z"/>
      <rect class="cls-14" x="551.77" y="316.06" width="195.9" height="13" transform="translate(-36.54 557.58) rotate(-45.31)"/>
      <polygon class="cls-9" points="585.15 319.72 576.51 310 646.95 247.35 646.95 211.45 659.95 211.45 659.95 253.18 585.15 319.72"/>
      <rect class="cls-14" x="573.01" y="243.74" width="13" height="249.62" transform="translate(-5.83 9.34) rotate(-.92)"/>
      <rect class="cls-14" x="505.13" y="142.6" width="13" height="751.51"/>
      <rect class="cls-14" x="571.01" y="181.82" width="13" height="36.74"/>
      <circle class="cls-12" cx="577.51" cy="230.71" r="7.17"/>
      <circle class="cls-1" cx="809.57" cy="373.23" r="19.95"/>
      <circle class="cls-11" cx="726.27" cy="298.79" r="9.4"/>
      <circle class="cls-14" cx="681.24" cy="340.56" r="9.4"/>
      <circle class="cls-1" cx="806.9" cy="466.86" r="19.95"/>
      <circle class="cls-14" cx="806.9" cy="551.9" r="19.95"/>
      <circle class="cls-1" cx="654.41" cy="632.19" r="19.95"/>
      <circle class="cls-14" cx="728.98" cy="511.45" r="9.5"/>
      <circle class="cls-14" cx="728.98" cy="595.45" r="9.5"/>
      <circle class="cls-17" cx="805.72" cy="279.3" r="19.95"/>
      <circle class="cls-1" cx="736.68" cy="227.16" r="19.95"/>
      <circle class="cls-1" cx="657.28" cy="183.6" r="19.95"/>
      <circle class="cls-13" cx="580.83" cy="153.38" r="19.95"/>
      <g>
        <line class="cls-14" x1="728.98" y1="551.9" x2="731.05" y2="582.71"/>
        <rect class="cls-14" x="723.52" y="551.86" width="13" height="30.88" transform="translate(-36.45 50.31) rotate(-3.85)"/>
      </g>
      <path class="cls-14" d="M657.57,605.24l-12.99-.58c1.02-22.82-12.14-34.96-46.95-43.28l3.02-12.64c18.66,4.46,31.03,9.73,40.12,17.09,11.88,9.62,17.53,22.88,16.79,39.42Z"/>
      <path class="cls-14" d="M480.82,863.9h13s0-231.8,0-231.8c0-46.99-38.23-85.22-85.22-85.22h-158.91s0,13,0,13h158.91c39.82,0,72.22,32.4,72.22,72.22v231.8Z"/>
      <path class="cls-10" d="M319.23,432.17h51.31s0-13,0-13h-51.31c-6.62,0-12.84-2.58-17.52-7.26-4.9-4.9-7.6-11.42-7.6-18.36,0-13.16-10.71-23.87-23.87-23.87h-25.89s0,13,0,13h25.89c5.99,0,10.87,4.88,10.87,10.87,0,10.41,4.05,20.19,11.41,27.55,7.13,7.13,16.62,11.06,26.71,11.06Z"/>
      <rect class="cls-7" x="278.54" y="475.77" width="30.88" height="13" transform="translate(-206.94 743.2) rotate(-86.15)"/>
      <rect class="cls-4" x="248.21" y="463.03" width="168.35" height="13"/>
      <path class="cls-3" d="M465.77,524.44l4.66-12.14c-25.96-9.97-88.77-8.26-149.51-6.61l.35,13c56.7-1.54,120.95-3.29,144.5,5.75Z"/>
      <path class="cls-14" d="M505.5,894.12h13s0-278.59,0-278.59c0-36.21-14.85-71.49-40.75-96.8l-231.82-226.59-9.09,9.3,231.82,226.59c23.41,22.88,36.83,54.77,36.83,87.5v278.59Z"/>
      <rect class="cls-14" x="367.78" y="224.62" width="13" height="195.9" transform="translate(-118.65 356.49) rotate(-44.69)"/>
      <polygon class="cls-8" points="438.85 319.72 447.49 310 377.05 247.35 377.05 211.45 364.05 211.45 364.05 253.18 438.85 319.72"/>
      <rect class="cls-14" x="319.68" y="362.05" width="249.62" height="13" transform="translate(68.86 807.07) rotate(-89.08)"/>
      <rect class="cls-14" x="505.87" y="142.6" width="13" height="751.51"/>
      <rect class="cls-14" x="439.99" y="181.82" width="13" height="36.74"/>
      <circle class="cls-12" cx="446.49" cy="230.71" r="7.17"/>
      <circle class="cls-1" cx="214.43" cy="373.23" r="19.95"/>
      <circle class="cls-11" cx="297.73" cy="298.79" r="9.4"/>
      <circle class="cls-14" cx="342.76" cy="340.56" r="9.4"/>
      <circle class="cls-1" cx="217.1" cy="466.86" r="19.95"/>
      <circle class="cls-14" cx="217.1" cy="551.9" r="19.95"/>
      <circle class="cls-1" cx="369.59" cy="632.19" r="19.95"/>
      <circle class="cls-14" cx="295.02" cy="511.45" r="9.5"/>
      <circle class="cls-14" cx="295.02" cy="595.45" r="9.5"/>
      <circle class="cls-14" cx="512.37" cy="910.08" r="9.5"/>
      <circle class="cls-14" cx="486.35" cy="880.06" r="9.5"/>
      <circle class="cls-14" cx="535.38" cy="880.06" r="9.5"/>
      <circle class="cls-17" cx="218.28" cy="279.3" r="19.95"/>
      <circle class="cls-1" cx="287.32" cy="227.16" r="19.95"/>
      <circle class="cls-1" cx="366.72" cy="183.6" r="19.95"/>
      <circle class="cls-13" cx="443.17" cy="153.38" r="19.95"/>
      <g>
        <line class="cls-14" x1="295.02" y1="551.9" x2="292.95" y2="582.71"/>
        <rect class="cls-14" x="278.54" y="560.8" width="30.88" height="13" transform="translate(-291.78 822.52) rotate(-86.15)"/>
      </g>
      <path class="cls-14" d="M366.43,605.24l12.99-.58c-1.02-22.82,12.14-34.96,46.95-43.28l-3.02-12.64c-18.66,4.46-31.03,9.73-40.12,17.09-11.88,9.62-17.53,22.88-16.79,39.42Z"/>
    </g>
  </g>
</svg>