<?xml version="1.0" encoding="UTF-8"?><svg id="Capa_2" xmlns="http://www.w3.org/2000/svg" viewBox="0 0 635.04 797.13"><g id="Capa_2-2"><g id="Capa_1-2"><path d="M348.7,766.91h-13v-231.8c0-46.99,38.23-85.22,85.22-85.22h158.91v13h-158.91c-39.82,0-72.22,32.4-72.22,72.22v231.8Z" style="fill:#9ca1a9;"/><path d="M510.28,335.19h-51.31v-13h51.31c6.62,0,12.84-2.58,17.52-7.26,4.9-4.9,7.6-11.42,7.6-18.36,0-13.16,10.71-23.87,23.87-23.87h25.89v13h-25.89c-5.99,0-10.87,4.88-10.87,10.87,0,10.41-4.05,20.19-11.41,27.55s-16.62,11.06-26.71,11.06h0Z" style="fill:#9ca1a9;"/><rect x="529.02" y="369.85" width="13" height="30.88" transform="translate(-24.66 36.83) rotate(-3.85)" style="fill:#9ca1a9;"/><rect x="412.96" y="366.04" width="168.35" height="13" style="fill:#9ca1a9;"/><path d="M363.75,427.45l-4.66-12.14c25.96-9.97,88.77-8.26,149.51-6.61l-.35,13c-56.7-1.54-120.95-3.29-144.5,5.75h0Z" style="fill:#9ca1a9;"/><path d="M324.01,797.13h-13v-278.59c0-36.21,14.85-71.49,40.75-96.8l231.82-226.59,9.09,9.3-231.82,226.59c-23.41,22.88-36.83,54.77-36.83,87.5v278.59h-.01Z" style="fill:#9ca1a9;"/><rect x="357.29" y="219.05" width="195.9" height="13" transform="translate(-25.27 390.57) rotate(-45.31)" style="fill:#9ca1a9;"/><polygon points="390.67 222.73 382.03 213.02 452.47 150.36 452.47 114.47 465.47 114.47 465.47 156.2 390.67 222.73" style="fill:#9ca1a9;"/><rect x="378.54" y="146.74" width="13" height="249.62" transform="translate(-4.31 6.22) rotate(-.92)" style="fill:#9ca1a9;"/><rect x="310.65" y="45.62" width="13" height="751.51" style="fill:#9ca1a9;"/><rect x="376.53" y="84.84" width="13" height="36.74" style="fill:#9ca1a9;"/><circle cx="383.03" cy="133.72" r="7.17" style="fill:#9ca1a9;"/><circle cx="615.09" cy="276.24" r="19.95" style="fill:#9ca1a9;"/><circle cx="531.79" cy="201.8" r="9.4" style="fill:#9ca1a9;"/><circle cx="486.75" cy="243.58" r="9.4" style="fill:#9ca1a9;"/><circle cx="612.42" cy="369.87" r="19.95" style="fill:#9ca1a9;"/><circle cx="612.42" cy="454.91" r="19.95" style="fill:#9ca1a9;"/><circle cx="459.93" cy="535.21" r="19.95" style="fill:#9ca1a9;"/><circle cx="534.5" cy="414.47" r="9.5" style="fill:#9ca1a9;"/><circle cx="534.5" cy="498.46" r="9.5" style="fill:#9ca1a9;"/><circle cx="611.24" cy="182.32" r="19.95" style="fill:#9ca1a9;"/><circle cx="542.2" cy="130.17" r="19.95" style="fill:#9ca1a9;"/><circle cx="462.79" cy="86.61" r="19.95" style="fill:#9ca1a9;"/><circle cx="386.35" cy="56.39" r="19.95" style="fill:#9ca1a9;"/><circle cx="318.79" cy="19.95" r="19.95" style="fill:#9ca1a9;"/><line x1="534.5" y1="454.91" x2="536.57" y2="485.72" style="fill:#9ca1a9;"/><rect x="529.02" y="454.88" width="13" height="30.88" transform="translate(-30.37 37.02) rotate(-3.85)" style="fill:#9ca1a9;"/><path d="M463.09,508.26l-12.99-.58c1.02-22.82-12.14-34.96-46.95-43.28l3.02-12.64c18.66,4.46,31.03,9.73,40.12,17.09,11.88,9.62,17.53,22.88,16.79,39.42h.01Z" style="fill:#9ca1a9;"/><path d="M286.34,766.91h13v-231.8c0-46.99-38.23-85.22-85.22-85.22H55.21v13h158.91c39.82,0,72.22,32.4,72.22,72.22v231.8Z" style="fill:#9ca1a9;"/><path d="M124.75,335.19h51.31v-13h-51.31c-6.62,0-12.84-2.58-17.52-7.26-4.9-4.9-7.6-11.42-7.6-18.36,0-13.16-10.71-23.87-23.87-23.87h-25.89v13h25.89c5.99,0,10.87,4.88,10.87,10.87,0,10.41,4.05,20.19,11.41,27.55,7.13,7.13,16.62,11.06,26.71,11.06h0Z" style="fill:#9ca1a9;"/><rect x="84.06" y="378.77" width="30.88" height="13" transform="translate(-291.58 458.68) rotate(-86.15)" style="fill:#9ca1a9;"/><rect x="53.73" y="366.04" width="168.35" height="13" style="fill:#9ca1a9;"/><path d="M271.29,427.45l4.66-12.14c-25.96-9.97-88.77-8.26-149.51-6.61l.35,13c56.7-1.54,120.95-3.29,144.5,5.75Z" style="fill:#9ca1a9;"/><path d="M311.02,797.13h13v-278.59c0-36.21-14.85-71.49-40.75-96.8L51.45,195.15l-9.09,9.3,231.82,226.59c23.41,22.88,36.83,54.77,36.83,87.5v278.59h0Z" style="fill:#9ca1a9;"/><rect x="173.3" y="127.64" width="13" height="195.9" transform="translate(-106.68 191.66) rotate(-44.69)" style="fill:#9ca1a9;"/><polygon points="244.37 222.73 253.01 213.02 182.57 150.36 182.57 114.47 169.57 114.47 169.57 156.2 244.37 222.73" style="fill:#9ca1a9;"/><rect x="125.21" y="265.06" width="249.62" height="13" transform="translate(-25.52 517.19) rotate(-89.08)" style="fill:#9ca1a9;"/><rect x="311.38" y="45.62" width="13" height="751.51" style="fill:#9ca1a9;"/><rect x="245.51" y="84.84" width="13" height="36.74" style="fill:#9ca1a9;"/><circle cx="252.01" cy="133.72" r="7.17" style="fill:#9ca1a9;"/><circle cx="19.95" cy="276.24" r="19.95" style="fill:#9ca1a9;"/><circle cx="103.25" cy="201.8" r="9.4" style="fill:#9ca1a9;"/><circle cx="148.28" cy="243.58" r="9.4" style="fill:#9ca1a9;"/><circle cx="22.61" cy="369.87" r="19.95" style="fill:#9ca1a9;"/><circle cx="22.61" cy="454.91" r="19.95" style="fill:#9ca1a9;"/><circle cx="175.11" cy="535.21" r="19.95" style="fill:#9ca1a9;"/><circle cx="100.54" cy="414.47" r="9.5" style="fill:#9ca1a9;"/><circle cx="100.54" cy="498.46" r="9.5" style="fill:#9ca1a9;"/><circle cx="23.8" cy="182.32" r="19.95" style="fill:#9ca1a9;"/><circle cx="92.84" cy="130.17" r="19.95" style="fill:#9ca1a9;"/><circle cx="172.24" cy="86.61" r="19.95" style="fill:#9ca1a9;"/><circle cx="248.69" cy="56.39" r="19.95" transform="translate(150.01 291.52) rotate(-80.01)" style="fill:#9ca1a9;"/><circle cx="316.24" cy="19.95" r="19.95" style="fill:#9ca1a9;"/><line x1="100.54" y1="454.91" x2="98.47" y2="485.72" style="fill:#9ca1a9;"/><rect x="84.06" y="463.81" width="30.88" height="13" transform="translate(-376.43 538.01) rotate(-86.15)" style="fill:#9ca1a9;"/><path d="M171.95,508.26l12.99-.58c-1.02-22.82,12.14-34.96,46.95-43.28l-3.02-12.64c-18.66,4.46-31.03,9.73-40.12,17.09-11.88,9.62-17.53,22.88-16.79,39.42h0Z" style="fill:#9ca1a9;"/></g></g></svg>